<svg xmlns="http://www.w3.org/2000/svg" xmlns:xlink="http://www.w3.org/1999/xlink" viewBox="0 0 5000 5000"><defs><style>.cls-1{isolation:isolate;}.cls-2,.cls-3,.cls-4{mix-blend-mode:multiply;}.cls-2{fill:url(#linear-gradient);}.cls-3{fill:url(#linear-gradient-2);}.cls-4{fill:url(#linear-gradient-3);}.cls-5,.cls-6{font-size:303.85px;}.cls-5{font-family:AvenirNext-DemiBold, Avenir Next;font-weight:300;}.cls-6{font-family:AvenirNext-Regular, Avenir Next;}</style><linearGradient id="linear-gradient" x1="1877.87" y1="2017.31" x2="2830.34" y2="2066.15" gradientUnits="userSpaceOnUse"><stop offset="0" stop-color="#fbed21"/><stop offset="0.15" stop-color="#fac83f"/><stop offset="0.33" stop-color="#faa15d"/><stop offset="0.51" stop-color="#fa8276"/><stop offset="0.68" stop-color="#f96d87"/><stop offset="0.85" stop-color="#f95f91"/><stop offset="1" stop-color="#f95b95"/></linearGradient><linearGradient id="linear-gradient-2" x1="2262.56" y1="1967.41" x2="2983.03" y2="2187.21" gradientUnits="userSpaceOnUse"><stop offset="0" stop-color="#e271cb"/><stop offset="1" stop-color="#ff438b"/></linearGradient><linearGradient id="linear-gradient-3" x1="3143.59" y1="2847.24" x2="2716.19" y2="1876.45" gradientUnits="userSpaceOnUse"><stop offset="0" stop-color="#a715fe"/><stop offset="1" stop-color="#3bfffe"/></linearGradient></defs><g class="cls-1"><g id="Layer_1" data-name="Layer 1"><path class="cls-2" d="M2691.27,2202.39c-310,107.45-89.72,105.24-399.64,267.5s-572.5-29.85-446.45-391.47c85.78-246.1,352.31-559.8,683.51-528.21S3121,2053.42,2691.27,2202.39Z"/><path class="cls-3" d="M2204.89,2356.29c3.94,117,148,308.34,439.19,162.62s2-240.65,287.49-397.51,223.31-382,106.12-441.1-402.9-246.88-578.08-14.45C2279,1905.48,2197,2121.44,2204.89,2356.29Z"/><path class="cls-4" d="M2880.33,2728.7c150.56,235.67,50.21-266.63,213-296s241.43-269.7,136.84-347.45,34.07-285.41-86.87-358-535,100.08-658.4,351.65C2242.69,2572.61,2644.21,2359.11,2880.33,2728.7Z"/><text class="cls-5" transform="translate(1643.95 3252.99)">BRAIN</text><text class="cls-6" transform="translate(2575.01 3252.98)">CHOP</text></g></g></svg>
